<svg xmlns="http://www.w3.org/2000/svg" viewBox="0 0 1024 1024" width="1024" height="1024">
  <defs>
    <linearGradient id="gold" gradientUnits="userSpaceOnUse" x1="350.5" y1="280.0" x2="711.9" y2="744.0">
      <stop offset="0" stop-color="#FDE68A"/>
      <stop offset="0.55" stop-color="#FBBF24"/>
      <stop offset="1" stop-color="#F59E0B"/>
    </linearGradient>
    <linearGradient id="fold" gradientUnits="userSpaceOnUse" x1="500.3" y1="610.0" x2="571.2" y2="700.0">
      <stop offset="0" stop-color="#9A3412" stop-opacity="0.55"/>
      <stop offset="1" stop-color="#9A3412" stop-opacity="0"/>
    </linearGradient>
  </defs>
  <path fill="url(#gold)" d="M 448.64 618.00 L 582.47 600.00 L 695.98 734.00 Q 703.86 744.00 689.86 744.00 L 593.86 744.00 Q 567.86 744.00 554.11 724.00 Z"/>
  <path fill="url(#fold)" d="M 448.64 618.00 L 582.47 600.00 L 695.98 734.00 Q 703.86 744.00 689.86 744.00 L 593.86 744.00 Q 567.86 744.00 554.11 724.00 Z"/>
  <path fill="url(#gold)" fill-rule="evenodd" d="M 342.41 318.00 Q 350.48 280.00 388.48 280.00 L 647.48 280.00 C 681.80 280.00 712.93 290.87 736.40 311.03 C 759.87 331.20 774.50 359.65 778.16 392.28 C 781.83 424.92 774.36 460.08 756.82 492.72 C 739.28 525.35 712.56 553.80 680.52 573.97 C 648.47 594.13 612.71 605.00 578.40 605.00 L 481.40 605.00 Q 459.40 605.00 439.79 622.00 L 292.86 744.00 L 265.86 744.00 Q 251.86 744.00 254.83 730.00 Z M 441.65 378.00 L 602.65 378.00 C 616.27 378.00 628.63 382.31 637.95 390.32 C 647.26 398.32 653.07 409.62 654.52 422.57 C 655.98 435.52 653.01 449.48 646.05 462.43 C 639.09 475.38 628.48 486.68 615.76 494.68 C 603.04 502.69 588.85 507.00 575.23 507.00 L 522.23 507.00 Q 497.23 507.00 476.41 525.00 L 395.95 593.00 Z"/>
</svg>
